<svg xmlns="http://www.w3.org/2000/svg" width="800" height="600" viewBox="0 0 800 600">
  <defs>
    <linearGradient id="g" x1="0" x2="1">
      <stop offset="0" stop-color="#9AE6B4"/>
      <stop offset="1" stop-color="#68D391"/>
    </linearGradient>
  </defs>
  <rect width="100%" height="100%" fill="url(#g)"/>
  <g transform="translate(60,120)">
    <rect x="0" y="0" width="680" height="360" rx="18" fill="#ffffff" opacity="0.08" />
    <g transform="translate(40,40)" fill="#fff" opacity="0.9">
      <rect x="0" y="0" width="600" height="40" rx="8" fill="#ffffff" opacity="0.06"/>
      <text x="20" y="26" font-family="Arial, Helvetica, sans-serif" font-size="20" fill="#ffffff">Set Sedotan Stainless</text>
      <g transform="translate(20,70)">
        <rect x="0" y="0" width="160" height="18" rx="9" fill="#fff" opacity="0.08"/>
        <rect x="0" y="28" width="360" height="12" rx="6" fill="#fff" opacity="0.06"/>
        <rect x="0" y="52" width="420" height="12" rx="6" fill="#fff" opacity="0.06"/>
      </g>
    </g>
    <g transform="translate(420,110) rotate(-15)" fill="#e6e6e6">
      <rect x="0" y="0" width="300" height="14" rx="7" />
      <rect x="8" y="-8" width="8" height="8" rx="2" fill="#cbd5e1"/>
      <rect x="260" y="-8" width="8" height="8" rx="2" fill="#cbd5e1"/>
    </g>
    <g transform="translate(140,220)" fill="#f7fafc" opacity="0.9">
      <text x="0" y="0" font-family="Arial, Helvetica, sans-serif" font-size="16">Placeholder image — replace with your JPEG</text>
    </g>
  </g>
</svg>